<!-- The Pythia (Oracle): Delphic oracle in trance — head tilted back in ecstasy, laurel crown, vaporous wisps rising -->
<svg xmlns="http://www.w3.org/2000/svg" viewBox="0 0 512 512">
  <defs>
    <mask id="pythia-mask">
      <circle cx="256" cy="256" r="240" fill="white"/>
      <!-- Profile facing right, head tilted back in trance -->
      <path fill="black" d="
        M 270 82
        C 252 80, 238 86, 228 96
        C 218 106, 212 120, 214 136
        C 216 148, 222 158, 230 166
        L 234 172
        C 230 180, 228 188, 228 196
        L 226 204
        C 224 212, 226 218, 230 222
        L 236 228
        C 232 236, 230 244, 232 252
        L 234 260
        L 238 268
        C 236 276, 234 286, 236 296
        L 240 312
        L 244 328
        L 248 348
        L 250 368
        L 252 392
        L 252 416
        L 252 438
        C 252 444, 256 448, 262 448
        L 278 448
        C 284 448, 288 444, 288 438
        L 288 416
        L 286 388
        L 284 360
        L 282 336
        L 280 312
        L 278 290
        L 276 272
        C 282 268, 286 262, 288 256
        L 292 244
        C 296 236, 296 228, 294 220
        L 290 210
        C 294 204, 296 196, 296 188
        L 294 178
        C 298 172, 300 164, 300 156
        C 300 142, 296 128, 288 118
        C 280 106, 270 96, 270 82
        Z
      "/>
      <!-- Laurel crown wreath -->
      <path fill="black" d="
        M 224 96
        L 218 88
        L 210 82
        C 206 80, 202 82, 204 86
        L 208 94
        L 214 100
        Z
        M 232 86
        L 228 76
        L 222 68
        C 218 64, 214 66, 216 70
        L 222 80
        L 228 88
        Z
        M 248 80
        L 246 68
        L 244 58
        C 244 54, 248 54, 250 58
        L 252 68
        L 250 78
        Z
        M 266 78
        L 270 68
        L 274 60
        C 276 56, 280 58, 278 62
        L 274 72
        L 268 80
        Z
        M 282 86
        L 290 78
        L 296 72
        C 300 70, 302 74, 298 78
        L 292 86
        L 284 92
        Z
        M 294 100
        L 304 96
        L 312 92
        C 316 90, 316 94, 312 98
        L 304 104
        L 296 106
        Z
      "/>
      <!-- Vapor wisps rising from below -->
      <path fill="black" d="
        M 200 380
        C 196 370, 192 358, 194 346
        C 196 334, 200 326, 198 316
        C 196 306, 190 300, 188 290
        C 186 282, 190 276, 194 284
        C 198 292, 196 302, 198 312
        C 200 322, 196 332, 194 342
        C 192 354, 194 366, 200 380
        Z
        M 174 410
        C 172 398, 170 386, 172 374
        C 174 362, 176 352, 174 342
        C 172 332, 168 326, 170 318
        C 172 312, 176 316, 176 324
        C 176 332, 178 342, 176 352
        C 174 362, 172 372, 174 384
        C 176 396, 174 404, 174 410
        Z
        M 316 400
        C 318 388, 320 376, 318 364
        C 316 352, 312 342, 314 332
        C 316 322, 320 316, 322 324
        C 324 332, 320 342, 318 352
        C 316 362, 318 374, 316 386
        C 316 394, 316 398, 316 400
        Z
      "/>
      <!-- Neck and shoulder draping -->
      <path fill="black" d="
        M 240 312
        L 220 330
        L 200 350
        L 184 372
        L 176 392
        L 172 412
        L 172 438
        C 172 444, 176 448, 182 448
        L 210 448
        C 216 448, 218 444, 216 438
        L 218 416
        L 222 392
        L 228 370
        L 236 348
        L 244 328
        Z
        M 278 290
        L 298 310
        L 316 332
        L 330 356
        L 338 380
        L 342 406
        L 342 438
        C 342 444, 338 448, 332 448
        L 308 448
        C 302 448, 300 444, 300 438
        L 300 410
        L 296 384
        L 288 358
        L 282 336
        L 278 312
        Z
      "/>
    </mask>
  </defs>
  <circle cx="256" cy="256" r="240" fill="#89B4C8" mask="url(#pythia-mask)"/>
</svg>
