<!-- The Herald (Lever): Civic messenger in proclamation — strong jaw, mouth open, staff held upright, forward-facing civic energy -->
<svg xmlns="http://www.w3.org/2000/svg" viewBox="0 0 512 512">
  <defs>
    <mask id="herald-mask">
      <circle cx="256" cy="256" r="240" fill="white"/>
      <!-- Herald profile facing right: strong jaw, open mouth, short hair -->
      <path fill="black" d="
        M 218 94
        C 204 98, 194 108, 188 120
        C 182 132, 180 146, 182 158
        C 184 168, 188 176, 192 182
        L 190 188
        C 186 194, 184 200, 184 208
        L 184 216
        C 180 222, 178 228, 178 236
        L 180 244
        C 176 248, 174 254, 176 260
        L 180 268
        L 184 274
        C 186 280, 190 286, 194 290
        L 198 294
        C 194 302, 192 310, 192 318
        L 192 328
        L 192 340
        L 194 356
        L 196 372
        L 198 392
        L 200 412
        L 200 432
        C 200 440, 206 446, 212 446
        L 228 446
        C 234 446, 238 440, 236 434
        L 234 412
        L 232 388
        L 230 364
        L 230 342
        L 232 324
        L 236 310
        L 242 298
        L 250 290
        L 260 286
        L 270 284
        L 280 286
        L 290 290
        L 298 298
        L 304 308
        L 308 322
        L 310 338
        L 310 358
        L 308 380
        L 306 404
        L 306 434
        C 306 440, 310 446, 316 446
        L 332 446
        C 338 446, 342 440, 340 434
        L 338 408
        L 336 380
        L 334 356
        L 332 334
        L 328 312
        L 322 294
        L 314 278
        L 306 266
        C 308 260, 308 254, 306 248
        L 302 240
        C 304 234, 304 226, 302 220
        L 298 212
        C 300 206, 300 198, 298 192
        L 294 184
        C 296 178, 296 170, 294 162
        C 292 150, 288 140, 280 130
        C 272 118, 260 110, 246 104
        C 238 98, 228 94, 218 94
        Z
      "/>
      <!-- Open mouth shape (reveals background through the mouth) -->
      <!-- Actually for negative space cameo, mouth open = part of the cut -->
      <!-- Jaw and open mouth detail -->
      <path fill="black" d="
        M 180 244
        L 172 250
        L 166 258
        L 164 266
        C 162 272, 164 276, 168 278
        L 176 280
        L 182 276
        L 184 274
        Z
        M 180 268
        L 172 274
        L 166 280
        L 164 286
        L 166 292
        C 168 296, 172 298, 178 296
        L 186 290
        L 192 284
        L 194 278
        Z
      "/>
      <!-- Staff held alongside figure -->
      <path fill="black" d="
        M 340 72
        L 336 72
        L 334 80
        L 333 120
        L 332 180
        L 332 240
        L 332 300
        L 332 360
        L 332 420
        L 332 446
        L 340 446
        L 342 420
        L 342 360
        L 342 300
        L 342 240
        L 342 180
        L 342 120
        L 342 80
        Z
        M 330 72
        L 326 64
        L 322 58
        L 320 54
        C 318 50, 316 50, 316 54
        L 318 60
        L 322 66
        L 326 72
        L 330 76
        Z
        M 344 72
        L 348 64
        L 352 58
        L 354 54
        C 356 50, 358 50, 358 54
        L 356 60
        L 352 66
        L 348 72
        L 344 76
        Z
      "/>
      <!-- Hair/helmet short crop -->
      <path fill="black" d="
        M 218 94
        L 222 86
        L 230 80
        L 240 76
        L 252 74
        L 264 76
        L 274 80
        L 282 86
        L 286 92
        C 288 86, 286 80, 280 74
        C 272 66, 260 62, 248 62
        C 234 62, 222 68, 214 78
        C 208 86, 206 94, 210 100
        L 218 94
        Z
      "/>
    </mask>
  </defs>
  <circle cx="256" cy="256" r="240" fill="#C85B5B" mask="url(#herald-mask)"/>
</svg>
