<!-- The Gadfly: Socrates in profile — unmistakable broad nose, full beard, balding dome, the most characterful silhouette -->
<svg xmlns="http://www.w3.org/2000/svg" viewBox="0 0 512 512">
  <defs>
    <mask id="gadfly-mask">
      <circle cx="256" cy="256" r="240" fill="white"/>
      <!-- Socratic profile facing left: bald dome, broad snub nose, full beard -->
      <path fill="black" d="
        M 310 108
        C 298 92, 280 84, 262 86
        C 244 88, 230 96, 222 110
        C 216 120, 214 132, 214 144
        C 214 156, 216 166, 218 174
        L 216 180
        C 210 184, 204 190, 200 198
        C 196 206, 192 214, 188 220
        L 180 228
        C 174 232, 170 234, 168 238
        C 164 244, 164 250, 168 254
        L 174 258
        C 172 264, 172 270, 174 276
        L 178 284
        C 176 290, 176 296, 178 302
        L 182 310
        C 180 316, 180 324, 182 332
        L 186 342
        L 190 354
        L 194 366
        C 196 374, 198 382, 200 388
        L 204 398
        C 200 404, 196 412, 196 420
        L 196 432
        C 196 440, 202 446, 210 446
        L 224 446
        C 230 446, 234 442, 234 436
        L 234 424
        L 232 412
        L 232 400
        L 234 388
        L 238 378
        L 244 368
        L 252 360
        L 262 354
        L 272 350
        L 280 348
        L 290 348
        L 298 350
        L 306 354
        L 312 360
        L 316 368
        L 318 378
        L 320 390
        L 320 404
        L 318 420
        L 318 436
        C 318 442, 322 446, 328 446
        L 342 446
        C 348 446, 352 440, 350 434
        L 348 418
        L 346 400
        L 342 382
        L 336 364
        L 328 346
        L 320 330
        L 312 316
        L 306 304
        C 310 298, 312 290, 312 282
        L 312 272
        C 316 266, 318 258, 318 250
        C 318 240, 316 232, 312 224
        L 308 216
        C 312 208, 314 200, 314 192
        C 314 180, 312 168, 310 158
        L 312 148
        C 314 138, 314 126, 310 116
        Z
        M 218 174
        C 222 176, 228 178, 232 178
        L 240 176
        C 246 174, 250 170, 252 166
        C 250 170, 246 176, 240 180
        L 232 182
        C 226 182, 220 180, 218 178
        Z
      "/>
      <!-- Full bushy beard mass -->
      <path fill="black" d="
        M 174 276
        L 168 284
        L 162 294
        L 158 306
        L 156 320
        L 156 336
        L 158 352
        L 162 366
        L 168 378
        L 176 388
        L 184 396
        L 194 400
        L 204 398
        L 200 388
        L 194 374
        L 190 358
        L 186 342
        L 182 332
        L 180 316
        L 178 302
        L 176 290
        Z
      "/>
      <!-- Broad snub nose detail -->
      <path fill="black" d="
        M 188 220
        L 178 226
        L 170 232
        L 166 238
        L 164 244
        L 166 250
        L 170 254
        L 176 258
        L 182 256
        L 186 250
        L 188 244
        L 190 236
        L 190 228
        Z
      "/>
      <!-- Brow ridge -->
      <path fill="black" d="
        M 200 198
        L 194 194
        L 188 192
        C 184 192, 182 194, 184 198
        L 188 204
        L 194 208
        L 200 210
        L 204 206
        Z
      "/>
    </mask>
  </defs>
  <circle cx="256" cy="256" r="240" fill="#C8A84B" mask="url(#gadfly-mask)"/>
</svg>
