<!-- The Traveller (Mirror): Herodotus gazing toward horizon — wide-brimmed petasos hat is the defining silhouette, travel cloak, distant gaze -->
<svg xmlns="http://www.w3.org/2000/svg" viewBox="0 0 512 512">
  <defs>
    <mask id="traveller-mask">
      <circle cx="256" cy="256" r="240" fill="white"/>
      <!-- Wide-brimmed petasos hat — the key recognition shape -->
      <path fill="black" d="
        M 128 158
        C 124 154, 122 156, 124 160
        L 132 168
        L 148 174
        L 168 180
        L 190 184
        L 214 186
        L 238 188
        L 256 188
        L 280 188
        L 306 186
        L 330 182
        L 352 178
        L 370 172
        L 384 166
        L 392 160
        C 394 156, 392 154, 388 158
        L 376 166
        L 358 172
        L 336 176
        L 312 180
        L 286 182
        L 260 184
        L 256 184
        L 240 184
        L 218 182
        L 196 178
        L 176 174
        L 158 168
        L 142 162
        Z
        M 196 178
        L 200 172
        L 208 164
        L 218 158
        L 230 154
        L 244 152
        L 258 152
        L 272 154
        L 284 158
        L 294 164
        L 302 172
        L 306 178
        L 306 182
        L 300 176
        L 292 168
        L 282 162
        L 270 158
        L 258 156
        L 244 156
        L 232 158
        L 220 162
        L 210 168
        L 202 176
        L 196 182
        Z
      "/>
      <!-- Crown/dome of hat -->
      <path fill="black" d="
        M 208 164
        L 214 152
        L 224 140
        L 236 132
        L 250 128
        L 264 128
        L 278 132
        L 288 140
        L 296 150
        L 300 162
        L 302 172
        L 294 164
        L 284 154
        L 272 146
        L 258 142
        L 244 142
        L 232 146
        L 220 154
        L 212 162
        Z
      "/>
      <!-- Face in profile facing right, gazing toward horizon -->
      <path fill="black" d="
        M 232 188
        C 228 194, 226 200, 226 208
        L 226 216
        C 222 222, 220 228, 220 236
        L 222 244
        C 218 250, 216 256, 218 264
        L 222 272
        L 226 278
        C 224 284, 224 290, 226 296
        L 230 304
        L 234 310
        C 232 316, 230 322, 230 328
        L 232 338
        L 234 348
        L 236 360
        L 238 376
        L 240 394
        L 240 414
        L 240 434
        C 240 440, 244 446, 250 446
        L 264 446
        C 270 446, 274 440, 274 434
        L 274 414
        L 272 392
        L 270 370
        L 268 350
        L 268 334
        L 270 320
        L 274 308
        L 280 298
        L 288 290
        L 296 286
        L 306 284
        L 314 286
        L 322 290
        L 328 298
        L 332 308
        L 334 320
        L 336 336
        L 336 354
        L 334 374
        L 334 396
        L 334 420
        L 334 434
        C 334 440, 338 446, 344 446
        L 358 446
        C 364 446, 366 440, 364 434
        L 362 412
        L 358 386
        L 354 360
        L 350 336
        L 344 314
        L 336 294
        L 326 278
        L 316 266
        C 318 260, 318 254, 316 248
        L 312 240
        C 314 234, 314 226, 312 220
        L 308 212
        C 310 206, 308 200, 306 194
        L 302 188
        L 290 186
        L 276 186
        L 260 186
        L 244 188
        Z
      "/>
      <!-- Beard - neat, traveller's beard -->
      <path fill="black" d="
        M 218 264
        L 212 272
        L 208 282
        L 206 294
        L 208 306
        L 212 318
        L 218 328
        L 226 336
        L 232 338
        L 230 328
        L 226 316
        L 224 304
        L 222 292
        L 222 280
        L 222 272
        Z
      "/>
      <!-- Travel cloak draped over shoulder -->
      <path fill="black" d="
        M 234 348
        L 220 360
        L 206 376
        L 194 394
        L 186 414
        L 184 434
        C 184 440, 188 446, 194 446
        L 216 446
        C 220 446, 222 442, 220 438
        L 222 418
        L 226 396
        L 232 376
        L 236 360
        Z
        M 336 336
        L 348 352
        L 358 372
        L 366 394
        L 370 418
        L 370 434
        C 370 440, 374 446, 380 446
        L 392 446
        C 396 446, 398 440, 396 434
        L 392 408
        L 384 382
        L 374 358
        L 362 338
        L 350 322
        L 342 314
        Z
      "/>
    </mask>
  </defs>
  <circle cx="256" cy="256" r="240" fill="#5BC88A" mask="url(#traveller-mask)"/>
</svg>
