<!-- The Gadfly (Socrates): The iconic Socratic profile in one stroke — bald dome, heavy brow, broad snub nose, full beard flowing down — intensity and relentless questioning. -->
<svg xmlns="http://www.w3.org/2000/svg" viewBox="0 0 512 512">
  <path
    d="M 320 420 C 310 400, 295 380, 285 360 C 275 340, 270 320, 268 300 C 266 280, 270 265, 272 250 C 274 235, 272 225, 265 218 C 258 211, 248 208, 238 210 C 228 212, 220 218, 215 226 C 210 234, 210 244, 215 252 C 220 260, 230 265, 238 262 C 246 259, 250 250, 248 242 C 246 234, 240 228, 235 232 C 230 236, 230 244, 235 250 C 240 256, 250 258, 258 255 C 266 252, 272 245, 278 238 C 284 231, 290 222, 296 212 C 302 202, 308 190, 312 178 C 316 166, 318 154, 315 144 C 312 134, 304 126, 294 122 C 284 118, 272 118, 262 122 C 252 126, 244 134, 238 144 C 232 154, 228 166, 226 178 C 224 190, 224 202, 228 212"
    fill="none"
    stroke="#C8A84B"
    stroke-width="10"
    stroke-linecap="round"
    stroke-linejoin="round"
  />
</svg>
