<!-- The Pythia (Oracle): The Delphic oracle in prophetic trance, single line rising from seated robes through arched spine to tilted-back head with vaporous wisps ascending. -->
<svg xmlns="http://www.w3.org/2000/svg" viewBox="0 0 512 512">
  <path
    d="M 180 440 C 195 430, 220 415, 240 395 C 260 375, 270 355, 272 335 C 274 315, 268 295, 265 275 C 262 255, 262 240, 268 225 C 274 210, 285 198, 292 185 C 299 172, 302 160, 298 148 C 294 136, 285 128, 278 120 C 271 112, 266 106, 268 98 C 270 90, 278 84, 288 80 C 298 76, 310 76, 318 80 C 326 84, 330 92, 328 100 C 326 108, 318 114, 312 122 C 306 130, 302 138, 300 145 C 298 152, 298 158, 302 162 C 306 166, 314 168, 320 165 C 326 162, 330 155, 335 148 C 340 141, 346 132, 350 122 C 354 112, 356 100, 352 90"
    fill="none"
    stroke="#89B4C8"
    stroke-width="10"
    stroke-linecap="round"
    stroke-linejoin="round"
  />
</svg>
