<!-- The Gadfly: Socrates — small bald dome, deeply concave face with flat snub nose, massive triangular beard jutting far forward -->
<svg xmlns="http://www.w3.org/2000/svg" viewBox="0 0 512 512">
  <path fill="#C8A84B" d="
    M 408 490
    L 120 490
    Q 140 470, 170 454
    Q 200 438, 230 420
    Q 252 406, 264 388
    Q 272 370, 268 350
    Q 262 330, 244 314
    Q 222 296, 194 278
    Q 162 258, 128 232
    Q 94 206, 70 176
    Q 52 150, 46 124
    Q 42 102, 52 84
    Q 64 70, 84 62
    Q 100 56, 116 52
    Q 130 48, 138 40
    Q 148 30, 168 24
    Q 194 16, 226 18
    Q 248 20, 264 26
    Q 278 20, 300 18
    Q 332 16, 362 26
    Q 394 40, 414 66
    Q 434 92, 440 126
    Q 444 160, 434 194
    Q 422 224, 404 250
    Q 386 274, 376 300
    Q 368 326, 368 354
    Q 370 382, 384 406
    Q 400 432, 412 462
    L 408 490
    Z
  "/>
</svg>
