<!-- The Traveller (Mirror): Herodotus — wide petasos hat with thick brim extending far beyond the head, neat trimmed beard, travel cloak collar -->
<svg xmlns="http://www.w3.org/2000/svg" viewBox="0 0 512 512">
  <path fill="#5BC88A" d="
    M 404 490
    L 116 490
    Q 136 470, 166 454
    Q 196 440, 220 424
    Q 240 408, 250 390
    Q 256 370, 250 350
    Q 240 330, 220 314
    Q 198 298, 178 280
    Q 158 262, 148 242
    Q 138 222, 138 200
    Q 140 180, 150 166
    Q 162 154, 176 148
    Q 168 132, 164 114
    Q 160 98, 164 84
    L 32 58
    Q 14 54, 10 38
    Q 8 22, 22 14
    Q 36 8, 54 14
    L 170 42
    Q 184 26, 208 16
    Q 238 6, 274 4
    Q 312 4, 344 16
    Q 366 26, 380 42
    L 472 16
    Q 490 12, 498 26
    Q 504 42, 492 54
    Q 482 60, 466 62
    L 388 82
    Q 396 100, 400 124
    Q 404 152, 398 184
    Q 408 196, 416 214
    Q 424 236, 424 262
    Q 422 288, 408 308
    Q 392 328, 384 350
    Q 378 374, 380 398
    Q 384 422, 396 448
    L 404 490
    Z
  "/>
</svg>
