<!-- The Peripatetic (Scout): Aristotle walking — head dramatically shifted forward/left of the body, creating a strong diagonal lean, neat curled hair swept back, short beard -->
<svg xmlns="http://www.w3.org/2000/svg" viewBox="0 0 512 512">
  <path fill="#5BC88A" d="
    M 440 490
    L 130 490
    Q 148 470, 178 454
    Q 208 440, 234 424
    Q 254 408, 264 390
    Q 270 372, 264 354
    Q 254 334, 236 318
    Q 214 302, 192 284
    Q 170 266, 156 244
    Q 144 222, 144 198
    Q 146 176, 156 160
    Q 168 146, 182 138
    Q 172 122, 158 102
    Q 142 80, 130 56
    Q 120 36, 110 22
    Q 106 14, 112 8
    Q 120 2, 130 6
    Q 142 12, 150 24
    Q 160 38, 166 50
    Q 174 40, 188 30
    Q 210 16, 240 10
    Q 274 6, 308 12
    Q 342 20, 368 40
    Q 394 62, 408 94
    Q 420 126, 420 162
    Q 418 196, 406 224
    Q 392 250, 378 274
    Q 366 296, 360 320
    Q 356 344, 360 368
    Q 366 392, 380 414
    Q 398 438, 420 466
    L 440 490
    Z
  "/>
</svg>
