<!-- The Gadfly: negative space cameo profile, traced from classical reference -->
<svg xmlns="http://www.w3.org/2000/svg" viewBox="0 0 512 512">
  <defs>
    <mask id="gadfly-mask">
      <circle cx="256" cy="256" r="240" fill="white"/>
      <g transform="translate(0.000000,512.000000) scale(0.100000,-0.100000)"
fill="#000000" stroke="none">
<path d="M1965 4535 c-38 -7 -106 -25 -150 -39 -226 -77 -416 -255 -465 -434
-6 -24 -33 -75 -60 -113 -62 -91 -68 -121 -35 -198 42 -100 35 -128 -50 -191
-29 -22 -99 -85 -154 -140 -114 -114 -126 -142 -95 -207 15 -29 33 -45 79 -68
72 -36 79 -61 25 -97 -31 -21 -36 -30 -42 -78 -10 -81 25 -149 71 -137 19 5
19 4 1 -32 -18 -35 -19 -53 -4 -156 5 -36 1 -46 -41 -103 -53 -73 -65 -100
-65 -150 -1 -20 -9 -55 -20 -77 -13 -26 -19 -62 -20 -105 0 -55 -5 -72 -30
-108 -41 -62 -56 -135 -40 -203 10 -45 22 -64 71 -112 33 -32 67 -57 79 -57
12 0 42 -23 72 -55 61 -66 96 -79 200 -74 69 4 80 8 138 47 35 23 75 42 89 42
48 0 126 45 171 98 56 68 159 119 202 101 29 -12 71 -56 100 -105 10 -16 22
-36 27 -44 13 -22 87 -179 106 -228 24 -58 15 -132 -22 -185 -15 -21 -34 -41
-43 -44 -8 -2 -23 -9 -32 -14 -12 -6 -18 -6 -18 1 0 6 11 15 24 20 13 5 37 25
52 46 22 29 29 50 32 100 3 35 0 64 -5 64 -16 0 -113 -92 -172 -164 -78 -96
-338 -500 -400 -623 -56 -112 1 -150 180 -120 276 48 526 156 1109 481 146 82
270 152 275 156 18 13 265 142 407 212 201 99 322 149 518 212 142 46 180 62
203 86 63 70 16 166 -141 288 -42 33 -93 77 -112 97 -104 109 -248 108 -484
-4 -249 -120 -436 -279 -945 -811 -181 -188 -363 -355 -471 -431 -59 -42 -40
-24 105 104 129 113 248 232 420 422 276 305 490 509 649 619 116 80 318 173
411 188 13 2 -12 19 -75 50 -178 86 -255 163 -334 330 -55 118 -83 151 -136
163 -16 3 -35 13 -42 22 -11 14 -10 15 12 8 72 -21 122 -62 143 -118 10 -27
56 38 67 93 7 38 17 60 32 70 12 8 41 34 65 58 41 40 43 45 43 99 0 57 0 58
59 113 53 49 60 61 71 115 10 47 10 73 0 120 -6 33 -16 85 -20 115 -8 49 -15
61 -63 106 -53 50 -54 51 -65 136 -19 136 -56 224 -148 353 -151 214 -303 334
-509 405 -78 27 -330 78 -448 90 -123 13 -266 11 -352 -5z m-340 -591 c32 -15
86 -64 71 -64 -5 0 -21 11 -38 25 -16 13 -48 29 -71 35 -62 16 -65 18 -29 19
19 1 49 -6 67 -15z m923 -31 c28 -17 62 -71 62 -97 0 -12 -9 -2 -23 25 -16 31
-36 51 -66 66 -24 12 -46 25 -50 28 -11 12 53 -7 77 -22z m-235 -94 c28 -34
20 -40 -13 -9 -16 15 -45 35 -65 44 -19 9 -35 21 -35 26 0 14 92 -37 113 -61z
m820 -4 c10 -20 16 -56 16 -83 -2 -47 -2 -47 -8 3 -4 28 -14 65 -23 83 -9 17
-13 32 -9 32 4 0 15 -16 24 -35z m-1575 -119 c8 -7 -12 -1 -44 15 -32 15 -62
25 -68 22 -5 -3 -6 -1 -2 5 7 12 90 -18 114 -42z m-92 -41 c-13 -55 -26 -58
-26 -7 0 40 6 52 25 52 8 0 9 -12 1 -45z m1301 4 c66 -25 110 -96 119 -192 5
-53 2 -73 -20 -126 -32 -80 -77 -138 -138 -182 -27 -19 -73 -57 -104 -86 -30
-28 -69 -55 -85 -58 -40 -9 -49 2 -13 15 52 19 69 30 89 59 10 16 33 37 49 47
17 10 59 44 93 77 81 78 118 162 111 259 -7 107 -52 167 -142 188 -22 6 -25 8
-9 9 12 1 34 -4 50 -10z m-337 -133 c-45 -43 -60 -44 -60 -2 0 14 3 16 13 7
10 -8 22 -5 47 14 51 37 50 30 0 -19z m143 -66 c5 -45 5 -45 -9 -17 -8 15 -12
37 -9 48 9 27 11 23 18 -31z m217 -48 c0 -52 -85 -172 -122 -172 -6 0 7 13 29
29 49 35 87 116 78 164 -5 24 -4 28 4 17 6 -8 11 -25 11 -38z m484 -353 c-38
-78 -60 -109 -77 -109 -6 0 -1 10 10 23 12 12 37 55 58 96 20 40 38 71 41 69
2 -3 -12 -38 -32 -79z m-1275 22 c-11 -22 -23 -41 -26 -41 -7 0 8 43 24 68 24
38 26 18 2 -27z m936 -10 c-11 -10 -35 11 -35 31 0 23 0 23 20 -2 10 -14 17
-26 15 -29z m-711 -38 c-28 -89 -29 -121 -5 -154 33 -44 18 -48 -24 -6 -36 36
-44 60 -23 73 8 5 9 2 5 -9 -3 -9 -1 -19 5 -23 7 -5 9 4 4 27 -4 25 1 48 19
87 30 65 39 67 19 5z m61 17 c-22 -42 -19 -102 6 -134 29 -37 16 -45 -15 -11
-32 34 -34 80 -6 135 11 22 23 40 25 40 3 0 -1 -13 -10 -30z m-1011 -10 c15
-31 9 -39 -12 -18 -11 11 -17 48 -8 48 3 0 11 -13 20 -30z m155 -47 c22 -60
24 -70 11 -50 -20 30 -41 87 -32 87 4 0 14 -17 21 -37z m548 -40 c-14 -36 -14
-40 9 -83 25 -48 30 -85 14 -95 -5 -3 -10 3 -10 15 0 11 -9 39 -21 62 -14 27
-19 50 -15 69 3 16 9 43 12 60 4 20 10 27 17 20 6 -6 5 -22 -6 -48z m-713 -63
c28 0 -12 -15 -57 -21 -29 -3 -60 -9 -70 -14 -16 -7 -16 -5 -5 19 8 19 17 26
30 23 10 -3 18 -2 18 3 0 4 17 4 38 -1 20 -5 41 -9 46 -9z m1730 -40 c12 0 78
-41 73 -46 -5 -6 -89 36 -110 55 -11 8 -24 25 -29 36 -7 13 2 9 24 -12 19 -18
38 -33 42 -33z m-1112 -112 c-15 -37 -21 -46 -21 -28 0 14 6 36 13 49 8 14 11
32 8 40 -4 12 -2 13 8 4 10 -9 8 -22 -8 -65z m523 32 c9 -40 -18 -116 -56
-160 -27 -32 -30 -33 -24 -10 4 14 16 41 27 60 11 19 23 61 26 92 5 61 16 68
27 18z m-255 -73 c0 -69 -9 -88 -54 -116 -44 -27 -57 -27 -20 1 16 12 33 25
39 30 17 15 23 130 8 163 -14 30 -14 30 6 5 15 -19 21 -40 21 -83z m140 -27
c-17 -32 -21 -19 -7 26 9 30 13 34 15 17 2 -12 -2 -32 -8 -43z m-541 -51 c-20
-39 -21 -48 -10 -88 15 -55 9 -63 -13 -17 -22 47 -20 75 10 119 34 50 42 41
13 -14z m-158 -59 c-9 -45 -9 -45 -10 5 0 28 3 61 7 75 7 25 7 25 10 -5 1 -16
-2 -50 -7 -75z m427 -67 c-9 -10 -20 -31 -26 -48 -9 -26 -11 -27 -11 -7 -1 25
16 63 33 74 18 12 20 -1 4 -19z m-637 -10 c-13 -24 -58 -63 -65 -56 -5 5 61
71 72 73 1 0 -2 -8 -7 -17z m922 2 c-6 -16 -61 -50 -69 -42 -3 3 56 48 73 56
1 1 0 -6 -4 -14z m-447 -30 c-25 -19 -46 -19 -46 0 0 10 10 15 33 15 30 -1 31
-1 13 -15z m314 -135 c-13 -54 -24 -67 -125 -147 -60 -47 -60 -47 -27 -5 19
23 38 42 42 42 24 0 81 65 91 103 18 68 19 70 25 64 4 -3 1 -29 -6 -57z m810
-146 c-5 -19 -11 -38 -14 -41 -8 -8 -7 26 0 55 10 37 23 25 14 -14z m-1373
-61 c-13 -21 -32 -44 -41 -52 -32 -27 -12 27 24 64 42 43 49 39 17 -12z m-481
-152 c1 -44 8 -71 28 -107 22 -39 23 -45 7 -29 -43 38 -68 145 -44 188 7 12 8
8 9 -52z"/>
<path d="M1203 3766 c-13 -16 -24 -33 -24 -37 -1 -5 -2 -13 -3 -18 0 -5 -3
-12 -7 -15 -11 -11 3 -72 22 -96 19 -25 19 -25 49 8 35 38 38 63 11 101 -11
15 -21 40 -23 56 -3 30 -3 30 -25 1z"/>
</g>
    </mask>
  </defs>
  <circle cx="256" cy="256" r="240" fill="#C8A84B" mask="url(#gadfly-mask)"/>
</svg>
