<!-- The Herald: negative space cameo profile, traced from classical reference -->
<svg xmlns="http://www.w3.org/2000/svg" viewBox="0 0 512 512">
  <defs>
    <mask id="herald-mask">
      <circle cx="256" cy="256" r="240" fill="white"/>
      <g transform="translate(0.000000,512.000000) scale(0.100000,-0.100000)"
fill="#000000" stroke="none">
<path d="M2790 4655 c-214 -33 -366 -77 -560 -165 -58 -26 -123 -50 -144 -54
-67 -13 -182 -99 -268 -202 -112 -135 -129 -157 -154 -212 -25 -55 -25 -55
-117 -49 -56 4 -137 19 -207 38 -63 18 -131 33 -150 33 -35 1 -35 1 -52 -64
-23 -90 -15 -326 13 -381 10 -20 23 -68 29 -105 6 -38 20 -81 30 -96 11 -15
20 -30 20 -33 0 -27 138 -195 160 -195 9 0 45 38 82 88 36 48 77 97 90 110 24
22 24 22 40 -66 17 -97 45 -171 139 -372 63 -135 63 -135 67 -265 3 -121 -2
-173 -35 -348 -9 -46 19 -67 86 -66 31 0 76 4 100 7 43 7 44 8 62 67 11 33 17
72 14 88 -2 15 -1 27 3 27 4 0 18 10 32 23 14 12 42 35 63 50 64 48 120 111
161 181 21 36 41 65 43 62 3 -2 -11 -37 -30 -78 -36 -78 -101 -148 -187 -202
-40 -25 -47 -35 -58 -80 -18 -77 -99 -231 -155 -292 -45 -50 -152 -127 -271
-197 -27 -15 -46 -30 -43 -33 3 -3 41 -18 85 -33 95 -33 176 -77 320 -172 137
-91 313 -221 307 -228 -3 -2 -13 3 -22 11 -36 31 -339 232 -422 281 -47 27
-133 69 -191 94 -85 37 -119 47 -180 50 -73 5 -76 4 -132 -33 -32 -21 -58 -42
-58 -46 0 -4 15 -8 34 -8 57 0 176 -27 265 -59 182 -67 429 -223 715 -452 36
-29 66 -55 66 -57 0 -5 7 -10 -187 129 -389 280 -695 419 -919 419 -74 0 -74
0 -132 -52 -32 -29 -87 -78 -123 -109 -100 -88 -161 -208 -127 -251 8 -11 46
-22 108 -33 297 -50 765 -213 1379 -482 664 -290 977 -386 1251 -387 139 0
192 12 217 50 32 49 -3 153 -105 309 -55 84 -124 175 -133 175 -4 0 8 -46 26
-102 18 -57 36 -123 39 -148 4 -28 -7 -4 -28 65 -68 214 -96 279 -153 365 -60
88 -249 293 -263 285 -4 -3 -11 -29 -14 -59 -8 -62 0 -83 47 -133 17 -18 29
-34 26 -37 -10 -9 -81 47 -90 72 -14 37 -3 116 26 177 47 102 77 180 95 250
13 51 28 82 50 106 32 34 70 109 84 163 4 16 20 48 36 72 53 77 112 87 415 74
103 -5 113 -3 167 22 126 59 154 201 63 321 -19 25 -35 52 -35 60 0 8 13 34
30 58 16 24 30 54 30 66 0 36 -52 87 -103 100 -38 10 -47 18 -60 50 -20 50 -4
93 57 149 25 23 48 54 52 70 4 16 20 42 36 58 37 37 36 84 -2 103 -34 17 -50
41 -50 75 0 22 7 33 32 46 54 28 108 86 108 116 0 39 -24 79 -67 112 -21 15
-68 56 -104 90 -36 34 -85 74 -110 90 -73 46 -89 65 -89 100 0 17 7 37 15 44
23 19 18 47 -17 95 -88 120 -221 291 -232 297 -32 18 -176 -39 -297 -118 -155
-100 -278 -203 -465 -388 -106 -105 -188 -182 -182 -172 6 11 97 105 202 211
251 251 435 390 671 507 111 55 190 82 213 72 13 -5 7 -9 -23 -15 -22 -4 -67
-19 -100 -34 -60 -27 -60 -27 -23 -46 20 -10 39 -27 43 -36 3 -10 19 -33 34
-51 29 -34 29 -34 71 20 48 59 90 141 90 175 0 52 -20 69 -148 131 -130 62
-232 99 -357 127 -100 23 -439 29 -565 10z m595 -328 c-131 -75 -201 -122
-343 -230 -125 -95 -379 -345 -475 -467 -37 -47 -76 -96 -88 -110 -20 -25 -20
-25 -2 8 61 113 335 406 508 544 185 147 444 313 495 317 8 0 -34 -27 -95 -62z
m-1325 6 c-119 -92 -250 -244 -316 -366 -19 -34 -34 -55 -34 -47 0 25 78 160
131 226 51 64 134 141 204 187 51 35 60 34 15 0z m1597 -539 c2 -5 -10 -9 -26
-10 -16 -1 -51 -17 -78 -36 -70 -50 -84 -55 -38 -13 41 37 112 77 129 72 6 -2
11 -7 13 -13z m-2004 -196 c-2 -198 11 -282 75 -486 18 -54 -5 -26 -28 36 -27
71 -70 232 -63 232 3 0 1 6 -5 13 -15 18 -9 256 8 320 7 26 13 47 14 47 0 0 0
-73 -1 -162z m2017 80 c0 -14 -16 -14 -80 -3 -65 12 -65 12 7 11 40 -1 73 -4
73 -8z m-2240 -22 c0 -8 -251 -88 -257 -82 -3 3 0 8 8 10 8 2 64 20 124 40
112 36 125 39 125 32z m1414 -68 c-17 -32 -16 -127 1 -173 7 -17 6 -18 -6 -7
-19 18 -19 172 0 195 21 26 23 20 5 -15z m-72 -106 c-7 -77 45 -192 86 -192
12 0 11 5 -5 23 -11 12 -23 29 -27 37 -4 8 8 -2 28 -23 19 -21 43 -38 53 -37
31 4 43 0 43 -11 0 -8 -4 -8 -14 0 -8 7 -17 8 -20 3 -3 -5 -25 -8 -48 -6 -34
3 -51 13 -91 51 -64 62 -111 163 -77 163 6 0 10 -7 10 -15 0 -22 35 -89 56
-106 16 -13 17 -12 9 6 -23 57 -29 94 -17 119 16 35 18 33 14 -12z m-293 -21
c20 -11 43 -27 51 -36 9 -11 -2 -8 -35 9 -68 37 -136 36 -197 -3 -60 -38 -83
-94 -76 -185 7 -85 39 -148 109 -217 54 -54 86 -73 241 -143 71 -32 135 -34
172 -5 18 14 24 16 20 5 -16 -43 -119 -62 -176 -32 -14 8 -43 19 -65 26 -130
43 -252 143 -299 245 -48 104 -36 240 25 299 57 55 161 72 230 37z m-114 -301
c4 -22 3 -21 -10 5 -8 17 -14 46 -14 65 1 35 1 35 10 -5 5 -22 11 -51 14 -65z
m275 18 c0 -12 10 -32 22 -45 31 -33 17 -37 -20 -5 -25 21 -31 32 -26 50 8 28
24 29 24 0z m1339 -58 c-31 -32 -71 -83 -88 -112 -17 -29 -31 -46 -31 -36 0
20 110 170 141 192 42 29 36 17 -22 -44z m-1469 -97 c3 -3 -12 2 -34 11 -21 9
-40 16 -41 16 -2 0 -10 11 -18 24 -14 21 -10 20 36 -11 29 -19 54 -37 57 -40z
m1574 51 c14 -37 -22 -77 -49 -54 -9 7 -21 7 -39 0 -34 -12 -36 -12 -36 0 0 9
97 70 111 70 4 0 10 -7 13 -16z m-1855 -240 c-57 -156 -161 -280 -343 -413
-89 -66 -63 -32 38 48 133 106 208 196 269 323 29 58 53 105 55 103 1 -1 -7
-29 -19 -61z m-327 -11 c-65 -78 -89 -94 -31 -20 29 37 57 67 62 67 5 0 -9
-21 -31 -47z m1031 -309 c40 -45 150 -108 207 -119 55 -10 248 -75 318 -106
69 -31 86 -49 20 -20 -70 29 -227 79 -308 97 -41 9 -97 28 -124 41 -63 32
-153 116 -177 168 -20 40 -20 40 3 10 13 -16 40 -49 61 -71z m-14 -911 c16
-54 32 -116 36 -137 13 -79 62 -155 165 -255 91 -90 159 -175 148 -186 -2 -3
-24 21 -47 53 -23 31 -72 82 -107 112 -36 30 -80 69 -97 86 -40 39 -79 143
-107 288 -12 59 -24 115 -27 122 -3 8 -3 14 1 14 3 0 18 -44 35 -97z m-309
-499 c220 -188 316 -262 460 -354 75 -48 124 -83 95 -68 -63 32 -222 132 -287
180 -102 76 -319 261 -373 319 -48 52 -32 40 105 -77z"/>
</g>
    </mask>
  </defs>
  <circle cx="256" cy="256" r="240" fill="#C85B5B" mask="url(#herald-mask)"/>
</svg>
