<!-- The Pythia: negative space cameo profile, traced from classical reference -->
<svg xmlns="http://www.w3.org/2000/svg" viewBox="0 0 512 512">
  <defs>
    <mask id="pythia-mask">
      <circle cx="256" cy="256" r="240" fill="white"/>
      <g transform="translate(0.000000,512.000000) scale(0.100000,-0.100000)"
fill="#000000" stroke="none">
<path d="M2457 4583 c-3 -5 -8 -27 -12 -50 -8 -51 7 -104 44 -153 26 -35 26
-35 0 -15 -14 11 -48 38 -76 60 -32 27 -71 47 -114 59 -35 10 -79 24 -97 32
-44 19 -52 18 -52 -8 0 -41 70 -120 134 -152 l58 -30 -73 -17 c-41 -10 -86
-18 -100 -19 -15 0 -32 -7 -39 -15 -17 -21 18 -33 122 -41 80 -7 81 -8 48 -19
-40 -14 -92 -40 -242 -119 -116 -62 -139 -86 -157 -166 -12 -52 -44 -85 -99
-99 -20 -6 -82 -22 -137 -36 -55 -14 -117 -30 -137 -36 -21 -5 -42 -18 -48
-29 -17 -32 -11 -83 15 -125 13 -22 25 -48 25 -57 0 -25 -36 -58 -64 -58 -13
0 -29 -7 -36 -15 -18 -21 -15 -83 6 -106 17 -18 16 -19 -18 -19 -52 0 -71 -26
-63 -84 7 -45 7 -45 -58 -108 -57 -55 -66 -69 -72 -110 -12 -80 19 -127 150
-226 192 -145 290 -247 326 -338 11 -29 54 -209 69 -294 4 -25 15 -70 23 -100
9 -30 21 -95 27 -143 6 -48 15 -99 20 -112 5 -13 14 -70 21 -127 13 -117 2
-201 -32 -240 -20 -23 -20 -23 -4 3 15 26 33 129 22 129 -31 0 -191 -123 -243
-187 -21 -26 -82 -93 -134 -148 -124 -131 -145 -155 -213 -246 -122 -162 -203
-341 -178 -395 25 -56 194 -87 471 -88 362 -1 661 76 1330 344 112 45 342 107
425 115 28 3 73 7 100 10 28 3 93 -2 145 -11 148 -25 155 -24 158 11 1 18 -10
54 -27 89 -17 33 -29 62 -27 64 5 4 103 -161 145 -245 22 -45 35 -61 46 -57 8
4 31 39 51 80 34 67 36 79 31 134 -3 42 -14 74 -34 106 -49 81 -54 93 -51 131
3 36 3 36 28 -3 14 -21 43 -51 65 -65 35 -24 42 -26 55 -13 13 13 12 20 -12
62 -15 26 -32 70 -39 97 -7 28 -19 66 -27 85 -15 36 -162 190 -162 169 0 -8
-4 -8 -15 1 -8 7 -13 15 -11 19 2 3 1 27 -3 53 -8 48 -8 48 41 2 107 -100 287
-142 231 -54 -74 118 -139 175 -210 186 -58 9 -54 24 5 24 49 0 92 21 92 45 0
22 -70 28 -121 11 -24 -8 -46 -12 -50 -8 -64 78 -138 183 -119 169 82 -58 229
-98 284 -77 17 6 25 14 20 19 -45 41 -150 125 -176 141 -24 15 -51 20 -98 20
-61 0 -69 3 -117 39 -52 39 -52 39 -13 34 66 -9 127 29 88 54 -7 4 -51 10 -98
13 -76 4 -85 7 -85 25 0 14 16 27 55 46 33 17 82 55 123 97 59 62 73 71 115
77 45 6 109 41 205 110 39 28 89 97 135 185 10 19 27 72 37 118 15 67 16 92 8
135 -39 189 -127 317 -288 415 -46 28 -52 37 -74 101 -13 39 -38 88 -55 109
-17 20 -40 55 -51 76 -11 22 -38 51 -60 66 -65 43 -130 111 -165 173 -23 41
-39 59 -58 63 -68 15 -127 58 -156 115 -16 32 -44 38 -105 22 -30 -7 -61 -11
-69 -8 -16 6 -8 38 20 76 29 38 21 73 -17 77 -41 3 -89 -28 -117 -77 -13 -23
-25 -41 -28 -41 -3 0 -11 14 -17 30 -8 21 -16 28 -27 24 -13 -5 -16 1 -16 32
0 45 -37 130 -68 158 -30 26 -46 10 -61 -61 -7 -32 -17 -67 -21 -78 -8 -18 -9
-18 -9 5 -1 32 -26 71 -85 138 -45 49 -69 62 -79 45z m48 -295 c7 -8 4 -9 -8
-4 -10 3 -27 6 -38 6 -10 0 -19 5 -19 11 0 13 50 3 65 -13z m-17 -17 c44 4 87
-19 154 -80 69 -63 59 -71 -14 -11 -35 27 -72 50 -83 50 -14 0 -5 -10 30 -33
50 -32 50 -32 6 -35 -33 -3 -52 3 -83 23 -70 46 -127 126 -67 94 12 -6 37 -9
57 -8z m338 -55 c67 -122 91 -248 59 -310 -8 -15 -15 -35 -15 -44 0 -18 -56
66 -76 113 -30 73 -39 312 -11 302 6 -2 25 -29 43 -61z m-241 -226 c21 -16 45
-30 54 -30 49 -1 172 -83 197 -132 20 -38 18 -42 -8 -18 -39 36 -122 89 -151
96 -58 14 -2 -46 86 -91 45 -23 28 -31 -28 -13 -29 10 -58 36 -117 106 -67 80
-89 112 -74 112 2 0 20 -13 41 -30z m445 -28 c-8 -2 -21 -11 -27 -20 -22 -28
-15 8 9 47 23 36 23 36 28 6 4 -22 1 -31 -10 -33z m55 -112 c3 -19 10 -62 16
-95 6 -33 8 -82 4 -110 -7 -57 -39 -135 -54 -135 -6 0 -21 19 -33 43 -19 35
-23 57 -23 142 0 94 2 104 35 172 38 79 40 79 55 -17z m-233 -173 c73 -42 154
-140 203 -242 40 -85 63 -148 46 -129 -4 5 -23 45 -41 89 -46 108 -58 127
-110 170 -48 40 -175 108 -192 103 -13 -5 97 -82 154 -108 43 -20 43 -20 -8
-17 -76 6 -134 44 -199 132 -30 41 -55 76 -55 78 0 9 159 -51 202 -76z m563
-2 c6 -36 8 -68 3 -71 -4 -3 -8 3 -9 13 0 10 -2 27 -4 38 -12 67 -15 98 -9 93
3 -4 12 -37 19 -73z m-139 -204 c4 -90 2 -101 -21 -145 -14 -26 -37 -63 -53
-82 -27 -34 -27 -34 -39 3 -28 91 -10 200 48 296 16 26 29 55 29 65 1 12 5 9
16 -11 9 -17 17 -65 20 -126z m-467 -15 c7 -8 42 -24 77 -36 36 -11 83 -32
104 -46 38 -25 121 -116 151 -164 17 -28 44 -115 54 -175 11 -66 -4 -34 -31
66 -13 51 -27 95 -30 98 -2 3 -22 4 -44 3 -81 -5 -156 46 -239 162 -31 45 -60
87 -65 94 -10 17 9 15 23 -2z m931 -146 c1 -19 1 -44 0 -55 -3 -25 -19 50 -19
90 -1 42 16 11 19 -35z m-381 -160 c1 -41 -4 -91 -10 -110 -6 -19 -12 -51 -14
-71 -4 -35 -52 -149 -63 -149 -2 0 -2 23 1 50 4 36 3 49 -5 44 -8 -5 -9 -1 -3
12 33 79 55 150 58 194 4 45 3 50 -9 38 -8 -7 -17 -33 -20 -58 -3 -24 -15 -68
-25 -98 -11 -30 -19 -80 -20 -111 -1 -51 -2 -53 -10 -26 -13 40 -3 190 16 245
9 25 32 70 53 102 33 52 38 55 44 35 3 -12 6 -56 7 -97z m-593 89 c19 -11 43
-34 55 -50 23 -32 44 -93 28 -84 -5 4 -9 15 -9 25 0 23 -54 87 -95 112 -16 10
-26 18 -21 18 5 0 24 -9 42 -21z m343 -183 c26 -20 71 -89 71 -108 0 -28 -48
-23 -101 10 -28 18 -60 53 -87 94 -23 35 -42 67 -42 70 0 8 140 -50 159 -66z
m-333 -55 c-30 -33 -114 -72 -168 -77 -29 -3 -69 -12 -89 -21 -20 -8 -45 -13
-55 -10 -14 4 -13 5 6 6 14 1 40 10 58 21 18 11 48 20 67 20 40 0 127 32 163
60 31 25 40 26 18 1z m950 -74 c-9 -24 -28 -55 -43 -68 -25 -23 -24 -22 6 31
18 30 35 63 38 73 3 10 8 15 11 13 3 -3 -3 -25 -12 -49z m-435 -148 c38 -13
72 -19 92 -15 30 5 31 5 12 -10 -24 -18 -67 -12 -145 22 -69 29 -41 31 41 3z
m351 -37 c-35 -43 -120 -90 -178 -98 -34 -4 -31 -2 21 16 61 22 162 90 172
116 3 8 8 13 10 10 3 -3 -8 -22 -25 -44z m-653 -190 c34 -29 78 -59 98 -67 21
-7 30 -14 20 -14 -56 -3 -177 93 -218 171 -28 54 -23 58 10 7 17 -24 57 -68
90 -97z m-289 -236 c11 -24 36 -61 55 -81 19 -20 35 -40 35 -45 0 -4 12 -11
26 -14 21 -6 25 -11 20 -29 -27 -94 -12 -149 58 -216 20 -19 36 -40 36 -46 0
-20 36 -46 82 -59 40 -12 43 -16 46 -50 3 -29 15 -48 65 -97 35 -34 88 -73
123 -90 36 -18 89 -58 135 -102 69 -67 176 -193 193 -227 5 -8 -5 1 -20 20
-104 128 -214 237 -269 265 -56 28 -65 30 -179 30 -134 0 -178 -11 -301 -72
-102 -51 -190 -120 -375 -297 -284 -271 -464 -404 -692 -513 -27 -12 -48 -21
-48 -19 0 2 46 29 103 61 107 62 212 133 287 196 25 21 79 66 120 100 41 34
156 141 255 236 199 193 196 178 35 158 -29 -4 -31 -3 -13 5 12 5 55 10 95 12
40 2 79 9 86 15 22 21 135 85 177 100 67 25 146 42 227 49 l77 7 -138 136
c-114 112 -144 148 -169 202 -35 73 -62 167 -62 215 0 21 -10 42 -32 66 -18
19 -41 56 -50 81 -21 59 -16 60 12 3z m601 7 c-13 -24 -52 -56 -59 -49 -6 7
47 66 60 66 5 0 4 -8 -1 -17z m-71 -38 c0 -3 -32 -21 -70 -40 -91 -46 -175
-68 -215 -56 -34 10 -32 11 46 16 40 2 79 14 140 43 84 41 99 46 99 37z m161
-52 c39 -44 48 -59 36 -61 -14 -3 -17 -17 -18 -75 l-1 -72 -40 85 c-40 83 -61
180 -40 180 5 0 34 -26 63 -57z m191 -342 c9 -96 6 -133 -7 -96 -15 43 -30 72
-62 118 -26 37 -31 52 -23 66 5 11 13 45 17 77 l7 59 29 -65 c22 -48 32 -90
39 -159z m-526 95 c19 -27 18 -44 -1 -25 -9 8 -17 31 -19 50 -2 19 -1 25 1 14
3 -11 11 -28 19 -39z m376 -269 c29 -27 42 -42 28 -33 -14 9 -39 26 -56 36
-36 24 -54 59 -53 103 1 31 1 30 15 -12 9 -30 30 -60 66 -94z m-1465 -240
c-21 -45 -50 -89 -73 -110 -53 -49 -56 -37 -5 18 40 43 100 152 102 185 1 11
2 11 6 -2 2 -9 -11 -50 -30 -91z m1733 -2 c0 -23 3 -57 6 -74 4 -20 3 -31 -5
-31 -7 0 -11 21 -11 53 -1 28 -7 70 -15 92 -19 52 -18 55 5 26 13 -15 20 -38
20 -66z m-2096 -167 c-44 -54 -81 -91 -109 -111 -27 -19 -28 -19 -15 -2 17 22
133 134 139 135 2 0 -4 -10 -15 -22z"/>
<path d="M2836 4029 c20 -88 24 -94 21 -26 -2 36 -10 64 -20 74 -15 15 -15 11
-1 -48z"/>
<path d="M3042 3720 c0 -47 4 -98 8 -115 5 -20 8 1 8 65 0 52 -3 104 -8 115
-6 13 -8 -9 -8 -65z"/>
<path d="M3207 3413 c-33 -163 -32 -176 8 -90 25 52 36 167 16 167 -4 0 -15
-35 -24 -77z"/>
<path d="M2970 3299 c62 -57 108 -89 129 -89 24 0 -27 48 -101 96 -36 24 -70
44 -75 44 -4 -1 17 -24 47 -51z"/>
<path d="M3099 2990 c30 -28 56 -48 59 -46 9 9 -19 44 -55 69 -61 42 -63 31
-4 -23z"/>
</g>
    </mask>
  </defs>
  <circle cx="256" cy="256" r="240" fill="#89B4C8" mask="url(#pythia-mask)"/>
</svg>
