<?xml version="1.0" standalone="no"?>
<!DOCTYPE svg PUBLIC "-//W3C//DTD SVG 20010904//EN"
 "http://www.w3.org/TR/2001/REC-SVG-20010904/DTD/svg10.dtd">
<svg version="1.0" xmlns="http://www.w3.org/2000/svg"
 width="512.000000pt" height="512.000000pt" viewBox="0 0 512.000000 512.000000"
 preserveAspectRatio="xMidYMid meet">
<metadata>
Created by potrace 1.16, written by Peter Selinger 2001-2019
</metadata>
<g transform="translate(0.000000,512.000000) scale(0.100000,-0.100000)"
fill="#000000" stroke="none">
<path d="M2830 4554 c-36 -7 -88 -13 -117 -14 -117 -1 -337 -56 -453 -115
-176 -88 -353 -249 -444 -406 -28 -46 -66 -107 -87 -135 -47 -64 -83 -135
-105 -209 -15 -49 -18 -88 -16 -212 3 -240 4 -244 2 -328 -2 -92 23 -186 66
-242 14 -19 30 -51 36 -71 5 -20 25 -53 44 -72 18 -19 53 -73 76 -120 38 -76
49 -88 98 -117 70 -42 87 -42 95 0 6 29 12 35 51 45 24 7 62 28 84 48 49 45
53 30 5 -19 -20 -21 -52 -41 -76 -47 -33 -9 -43 -18 -56 -48 -26 -63 -101
-168 -147 -205 -40 -33 -47 -35 -77 -27 -64 19 -103 11 -212 -39 -75 -36 -112
-59 -131 -84 -30 -40 -33 -57 -8 -57 9 -1 0 -7 -21 -14 -87 -31 -170 -110
-182 -172 -5 -27 -23 -56 -63 -99 -32 -33 -70 -84 -85 -113 -31 -58 -46 -144
-28 -165 7 -9 42 -17 89 -21 447 -38 869 -187 1767 -621 518 -250 689 -315
838 -319 62 -1 71 2 88 23 24 30 21 48 -27 150 -41 88 -120 200 -241 341 -11
14 -64 77 -117 140 -53 63 -126 150 -162 193 -64 75 -175 177 -195 177 -6 0
-8 -14 -5 -32 3 -18 8 -50 11 -70 4 -27 16 -46 41 -65 19 -16 42 -39 51 -53
16 -25 16 -25 -13 1 -16 14 -40 32 -54 41 -27 16 -50 82 -50 141 0 51 38 185
70 247 15 30 38 79 51 109 16 37 36 62 60 78 37 24 37 24 120 -18 80 -40 86
-41 154 -36 38 2 81 1 94 -4 30 -12 134 7 182 33 20 11 43 33 53 48 9 16 29
42 45 58 46 46 64 139 40 213 -6 19 -27 67 -46 108 -30 64 -34 79 -26 106 8
24 6 39 -6 61 -8 16 -15 49 -16 74 0 43 -1 45 -45 62 -45 19 -45 19 -2 14 51
-5 87 20 101 71 8 28 5 37 -20 70 -43 53 -36 75 26 89 90 20 133 59 122 112
-7 35 -159 287 -197 327 -48 50 -52 74 -23 138 26 56 26 56 -16 179 -23 68
-48 137 -55 153 -8 17 -16 41 -20 55 -3 14 4 4 16 -22 12 -27 27 -48 33 -48
18 0 71 61 95 110 39 76 16 202 -52 289 -64 83 -204 172 -343 221 -27 9 -102
36 -165 59 -188 68 -349 86 -500 55z m-604 -363 c-16 -16 -36 -53 -46 -83 -11
-30 -19 -44 -19 -31 -1 32 19 73 53 111 16 17 32 32 35 32 3 0 -8 -13 -23 -29z
m1592 -134 c2 -30 0 -63 -6 -73 -8 -15 -10 -6 -6 36 4 43 1 63 -15 95 -21 40
-21 40 1 18 15 -15 23 -38 26 -76z m-89 -29 c1 -61 -2 -71 -26 -97 -16 -16
-39 -32 -53 -36 -22 -6 -21 -3 11 24 43 36 64 99 56 169 -4 30 -3 40 3 27 5
-11 9 -50 9 -87z m-144 -54 c-19 -50 -85 -114 -118 -114 -18 0 -16 3 12 18 49
24 89 79 103 141 11 44 14 49 16 26 2 -15 -4 -47 -13 -71z m-482 29 c-10 -14
-34 -38 -53 -52 -31 -23 -29 -20 13 26 26 29 47 58 48 65 0 10 2 10 6 -1 3 -7
-3 -25 -14 -38z m-1249 -55 c-15 -29 -31 -56 -36 -59 -5 -3 -8 -10 -6 -15 1
-5 -10 -29 -25 -54 -44 -70 -21 -8 37 102 52 99 79 122 30 26z m784 26 c-51
-50 -78 -98 -78 -138 0 -14 -4 -26 -10 -26 -39 0 25 139 83 181 57 41 58 36 5
-17z m769 -13 c-14 -21 -41 -49 -59 -61 -31 -22 -31 -21 8 21 23 24 47 55 54
67 6 13 14 21 17 18 3 -3 -6 -23 -20 -45z m-640 -100 c-66 -73 -69 -155 -9
-230 38 -48 50 -72 48 -98 -4 -38 -13 -36 -20 3 -4 20 -25 59 -47 86 -61 78
-55 180 16 251 43 42 52 32 12 -12z m533 -35 c-44 -12 -44 -12 -56 -71 -10
-50 -19 -66 -51 -93 -21 -19 -51 -36 -66 -39 -20 -4 -34 -17 -48 -44 -25 -49
-31 -50 -13 -1 7 20 14 60 15 87 2 50 2 50 12 13 12 -43 17 -45 55 -21 52 32
72 56 72 85 0 41 26 86 52 91 50 10 71 5 28 -7z m-272 -169 c21 -50 14 -89
-24 -147 -50 -75 -73 -99 -116 -121 -51 -26 -48 -10 2 19 51 29 130 134 130
172 0 15 -7 49 -15 76 -16 54 -19 93 -7 121 5 12 9 1 13 -37 3 -30 11 -68 17
-83z m-125 -23 c37 -52 46 -71 26 -59 -6 4 -10 1 -8 -6 8 -62 -2 -91 -47 -137
-45 -47 -45 -47 -10 8 52 81 56 125 17 193 -17 30 -31 67 -30 83 1 29 1 29 8
-1 4 -17 24 -53 44 -81z m-142 -132 c-14 -27 -60 -62 -80 -62 -9 0 -3 8 15 19
18 11 40 31 50 44 22 29 31 28 15 -1z m-736 -55 c-24 -57 -20 -155 9 -210 15
-31 18 -43 8 -35 -46 38 -63 174 -32 246 24 53 37 52 15 -1z m372 19 c-62 -17
-104 -58 -122 -120 -20 -68 -19 -86 11 -162 32 -78 103 -159 211 -241 76 -57
125 -70 159 -43 21 18 28 6 7 -12 -51 -44 -97 -27 -235 84 -132 107 -198 228
-183 338 12 89 92 171 165 169 34 0 33 -1 -13 -13z m1260 -2 c2 -7 -5 -10 -20
-7 -13 3 -44 -5 -68 -17 -30 -14 -38 -16 -24 -4 46 38 104 52 112 28z m-849
-66 c-19 -28 -76 -58 -108 -57 -25 1 -25 1 0 8 38 12 85 38 99 55 20 24 26 19
9 -6z m-434 -201 c4 -16 26 -49 49 -74 41 -45 41 -46 10 -30 -40 21 -73 75
-72 118 1 35 3 33 13 -14z m249 -55 c18 -37 18 -37 -8 -9 -25 28 -32 47 -17
47 4 0 15 -17 25 -38z m327 -99 c0 -57 -5 -53 -14 11 -5 33 -4 46 3 41 6 -3
11 -27 11 -52z m-1042 -126 c19 -33 64 -70 154 -125 36 -22 45 -31 28 -28 -39
7 -132 62 -168 99 -36 37 -61 106 -53 147 3 20 6 17 12 -18 5 -24 17 -58 27
-75z m250 -74 c37 -13 54 -20 37 -17 -72 13 -108 27 -138 55 -32 31 -32 31 1
7 18 -13 63 -33 100 -45z m1712 -4 c0 -16 -4 -29 -10 -29 -5 0 -10 16 -10 36
0 21 4 33 10 29 6 -3 10 -19 10 -36z m-700 -66 c0 -42 -9 -39 -16 6 -3 18 -1
31 5 31 6 0 11 -16 11 -37z m595 -3 c-9 -16 -20 -30 -25 -30 -14 0 -13 7 6 35
23 35 38 31 19 -5z m-989 -118 c15 -26 36 -74 48 -107 19 -54 26 -63 70 -87
45 -24 85 -72 72 -85 -3 -3 -11 7 -18 22 -7 15 -31 37 -58 50 -56 28 -65 39
-74 87 -4 20 -13 39 -22 42 -18 7 -62 100 -64 136 -1 14 -1 39 0 55 2 24 4 21
10 -18 5 -26 21 -68 36 -95z m-653 28 c-6 -6 -53 51 -53 65 0 5 13 -6 29 -25
16 -19 27 -37 24 -40z m824 1 c-26 -28 -47 -46 -47 -41 0 10 83 97 89 93 2 -2
-17 -25 -42 -52z m669 37 c-8 -13 -24 -42 -35 -65 -22 -47 -37 -59 -21 -17 15
38 31 67 48 87 22 24 27 21 8 -5z m-1655 -107 c34 -33 34 -33 1 -17 -33 17
-72 69 -72 96 0 8 8 2 18 -15 11 -16 34 -45 53 -64z m1140 -172 c39 -76 37
-85 -5 -23 -19 28 -37 69 -40 90 -6 35 -5 36 5 14 6 -14 24 -50 40 -81z m-109
-103 c7 -14 48 -56 91 -95 91 -84 89 -96 -3 -16 -35 30 -67 55 -72 55 -8 0
-38 60 -38 75 0 12 10 3 22 -19z m823 -215 c-21 -42 -27 -39 -9 4 7 19 15 49
16 67 1 33 1 33 5 -4 3 -21 -3 -50 -12 -67z m-603 18 c13 -17 40 -40 61 -50
20 -11 37 -22 37 -24 0 -13 -77 28 -90 48 -8 12 -23 30 -32 39 -10 10 -14 18
-8 18 5 0 20 -14 32 -31z m-1441 -9 c219 -57 565 -250 898 -500 62 -47 135
-101 161 -120 126 -94 165 -126 287 -239 73 -66 178 -169 235 -229 56 -59 157
-161 223 -226 66 -66 105 -109 87 -97 -19 13 -151 138 -295 279 -341 332 -522
483 -849 706 -205 140 -468 293 -613 358 -71 31 -227 78 -262 78 -13 0 -22 4
-19 9 6 9 74 0 147 -19z m-99 -265 c311 -65 510 -160 935 -447 197 -134 289
-207 128 -103 -567 367 -950 539 -1240 558 -35 2 -27 4 27 5 42 1 110 -5 150
-13z m1298 -275 c12 -24 47 -70 78 -102 30 -32 53 -60 50 -63 -11 -11 -127
124 -156 180 -29 59 -72 189 -72 216 1 8 18 -31 39 -86 21 -55 48 -120 61
-145z"/>
</g>
</svg>
