<?xml version="1.0" standalone="no"?>
<!DOCTYPE svg PUBLIC "-//W3C//DTD SVG 20010904//EN"
 "http://www.w3.org/TR/2001/REC-SVG-20010904/DTD/svg10.dtd">
<svg version="1.0" xmlns="http://www.w3.org/2000/svg"
 width="512.000000pt" height="512.000000pt" viewBox="0 0 512.000000 512.000000"
 preserveAspectRatio="xMidYMid meet">
<metadata>
Created by potrace 1.16, written by Peter Selinger 2001-2019
</metadata>
<g transform="translate(0.000000,512.000000) scale(0.100000,-0.100000)"
fill="#000000" stroke="none">
<path d="M2465 4644 c-158 -23 -303 -69 -412 -130 -80 -44 -204 -136 -200
-148 2 -6 39 -20 83 -33 293 -87 477 -155 833 -306 316 -133 758 -356 954
-479 26 -17 50 -28 53 -26 8 8 9 160 2 214 -20 150 -76 285 -162 401 -204 271
-642 487 -1026 506 -52 3 -108 3 -125 1z"/>
<path d="M585 4520 c-192 -20 -293 -62 -326 -133 -24 -55 -23 -80 5 -150 67
-161 292 -369 663 -611 157 -101 357 -216 375 -215 7 1 44 35 83 76 69 74 69
74 47 137 -23 63 -23 63 -4 114 11 28 40 82 65 119 26 38 52 90 59 116 7 27
25 59 41 75 26 25 36 27 117 30 136 6 239 -19 535 -126 159 -58 250 -99 324
-145 36 -22 89 -54 117 -72 28 -17 89 -46 135 -64 46 -18 96 -42 110 -52 15
-10 68 -32 117 -48 119 -39 179 -71 222 -117 35 -37 35 -37 0 -12 -51 37 -122
71 -225 107 -49 18 -109 43 -132 56 -23 14 -76 38 -118 55 -74 28 -158 73
-271 145 -79 51 -143 81 -219 102 -38 11 -113 39 -165 61 -129 56 -263 90
-381 98 -122 8 -135 1 -185 -99 -20 -39 -46 -85 -58 -102 -41 -55 -73 -120
-80 -158 -6 -29 -3 -44 13 -66 40 -55 27 -86 -83 -196 -75 -77 -195 -231 -203
-263 -14 -57 46 -122 113 -122 73 0 80 -17 29 -81 -30 -37 -34 -49 -29 -79 4
-19 12 -45 19 -56 15 -23 52 -37 61 -23 3 5 22 8 42 8 37 -1 37 -1 2 -8 -19
-4 -45 -13 -57 -19 -24 -13 -40 -53 -29 -71 4 -6 0 -21 -9 -35 -11 -16 -14
-33 -8 -52 9 -35 5 -61 -12 -88 -7 -12 -19 -41 -25 -66 -6 -25 -18 -54 -25
-65 -18 -29 -47 -140 -53 -199 -6 -69 13 -123 61 -172 23 -23 51 -56 62 -75
47 -77 89 -87 403 -100 13 -1 46 9 75 21 29 11 61 25 72 29 76 32 76 32 110
15 43 -20 57 -37 84 -104 13 -30 32 -64 42 -76 10 -11 19 -29 19 -39 0 -10 14
-60 30 -112 51 -158 38 -217 -62 -283 -40 -27 -54 -33 -45 -19 8 11 30 28 48
38 46 24 80 91 73 145 -2 22 -7 42 -9 44 -3 3 -30 -15 -61 -39 -63 -48 -140
-134 -229 -255 -32 -43 -111 -137 -176 -209 -235 -261 -329 -402 -329 -494 0
-63 24 -81 108 -81 142 0 335 73 907 345 610 289 903 412 1184 496 186 55 391
97 545 111 115 11 130 15 143 35 13 19 13 28 -1 76 -23 80 -84 165 -172 241
-43 37 -99 92 -124 122 -54 64 -84 88 -146 115 -63 28 -152 20 -292 -27 -425
-141 -965 -496 -1586 -1043 -263 -232 -284 -250 -336 -290 -45 -33 -45 -33 -5
4 111 105 528 481 610 551 153 130 564 428 731 529 217 133 535 274 669 297
16 3 14 7 -15 21 -104 51 -223 189 -270 313 -12 32 -26 64 -31 70 -5 6 -7 13
-4 16 3 2 -19 17 -49 32 -29 15 -64 39 -77 54 -24 26 -24 26 1 9 14 -9 39 -23
55 -31 43 -20 100 -65 100 -79 0 -7 11 -42 23 -79 23 -68 23 -68 73 -43 65 33
114 106 133 199 12 57 22 75 60 116 47 50 63 96 52 151 -3 18 2 48 14 80 26
65 25 73 -9 145 -16 33 -32 72 -36 85 -7 24 -7 24 19 0 16 -15 35 -51 47 -90
17 -57 18 -73 8 -113 -6 -27 -15 -51 -20 -54 -5 -3 -6 -29 -3 -58 9 -72 -8
-116 -61 -165 -38 -35 -44 -46 -47 -87 -3 -47 -3 -47 131 -85 417 -119 802
-178 981 -150 193 30 256 113 200 264 -90 241 -561 640 -1140 965 -258 145
-303 169 -500 267 -711 355 -1463 615 -2040 704 -297 45 -453 56 -595 41z
m1700 -700 c3 -11 10 -20 15 -20 11 0 54 -69 47 -76 -3 -3 -12 7 -21 23 -8 16
-22 36 -31 43 -22 18 -38 50 -26 50 5 0 13 -9 16 -20z m-466 -19 c38 -20 71
-51 53 -51 -5 0 -15 7 -23 16 -7 8 -29 24 -48 34 -20 11 -32 19 -28 20 4 0 25
-9 46 -19z m-63 -208 c-2 -2 -18 3 -35 11 -16 9 -40 16 -52 16 -17 0 -19 3
-10 14 10 12 19 10 57 -11 25 -14 43 -27 40 -30z m624 0 c0 -10 3 -29 6 -43 6
-24 6 -25 -9 -5 -18 22 -23 65 -7 65 6 0 10 -8 10 -17z m-703 -33 c-4 -32 -2
-40 11 -40 13 0 12 -3 -3 -14 -11 -8 -22 -13 -25 -11 -10 6 2 105 12 105 7 0
9 -16 5 -40z m1253 -65 c17 -9 30 -18 30 -21 0 -3 -5 -2 -11 2 -7 4 -30 13
-53 20 -28 9 -34 13 -18 13 13 1 36 -6 52 -14z m-347 -77 c-22 -36 -95 -138
-99 -138 -2 0 3 14 12 31 11 23 13 34 5 42 -6 6 -11 20 -10 32 0 18 1 17 10
-4 10 -25 10 -25 47 12 38 39 48 46 35 25z m442 -34 c19 -47 19 -106 -1 -175
-31 -105 -99 -186 -248 -292 -62 -45 -86 -57 -116 -57 -22 0 -43 7 -50 15 -11
14 -10 14 13 6 31 -12 81 0 109 26 11 10 50 38 86 63 79 53 150 142 182 227
17 46 21 72 17 123 -3 36 -8 73 -12 83 -4 9 -4 17 -1 17 3 0 13 -16 21 -36z
m425 -93 c67 -66 65 -71 -5 -17 -45 35 -94 87 -95 100 0 12 25 -9 100 -83z
m-711 55 c-9 -18 -8 -33 0 -57 15 -44 13 -59 -4 -29 -18 31 -19 82 -3 98 18
18 19 15 7 -12z m190 -139 c-26 -68 -97 -137 -139 -137 -8 0 3 9 26 19 46 21
97 90 110 149 5 24 9 30 12 19 2 -10 -2 -33 -9 -50z m-239 -6 c0 -18 -10 -41
-26 -58 -26 -28 -26 -28 -5 1 12 16 21 42 21 57 0 16 2 29 5 29 3 0 5 -13 5
-29z m524 -18 c13 -38 14 -45 2 -33 -14 15 -32 80 -23 80 3 0 12 -21 21 -47z
m-851 -37 c-3 -22 2 -49 16 -82 22 -49 22 -49 1 -28 -23 23 -36 80 -26 118 9
37 16 32 9 -8z m-44 -166 c0 -21 -25 29 -32 65 -5 26 -4 25 13 -10 11 -22 19
-47 19 -55z m952 19 c16 -11 34 -17 40 -13 8 4 9 3 5 -4 -11 -18 -25 -15 -58
13 -36 30 -27 33 13 4z m-1843 -29 c3 -21 2 -22 -12 -11 -9 7 -13 17 -10 22 3
5 1 9 -5 9 -5 0 -12 -6 -14 -12 -3 -8 -6 -5 -6 5 -1 30 43 18 47 -13z m58 -19
c7 -13 9 -32 6 -44 -4 -18 -7 -15 -18 18 -11 38 -19 33 -14 -9 1 -11 -3 -15
-9 -12 -21 13 -9 80 13 73 6 -2 16 -14 22 -26z m945 -46 c-6 -42 -8 -46 -15
-27 -5 14 -3 35 4 53 17 39 18 34 11 -26z m-323 -37 c-10 -74 -1 -98 48 -124
44 -24 37 -30 -9 -8 -52 25 -66 59 -53 134 13 79 25 78 14 -2z m264 -16 c6 -7
8 -16 4 -20 -10 -9 -36 27 -36 49 0 10 3 26 8 36 5 14 8 10 10 -17 2 -19 8
-41 14 -48z m7 -106 c-1 -31 -1 -31 -9 -2 -5 16 -18 38 -28 50 -36 40 -35 51
1 17 28 -26 37 -43 36 -65z m697 -64 c42 -35 36 -43 -10 -13 -37 24 -66 70
-65 101 0 21 3 19 19 -16 10 -22 35 -55 56 -72z m-552 67 c14 -72 2 -133 -37
-184 -27 -35 -27 -11 -1 54 19 46 25 77 22 112 -3 55 6 66 16 18z m890 -33
c-10 -20 -21 -36 -26 -36 -12 0 -10 7 14 44 29 44 34 39 12 -8z m-1131 -34 c0
-26 -4 -64 -8 -86 -6 -30 -5 -37 5 -31 8 5 5 -3 -6 -17 -19 -26 -19 -26 -22
16 -2 22 2 58 9 78 6 20 9 54 6 74 -5 29 -4 35 6 25 6 -6 11 -33 10 -59z m100
-34 c-10 -56 -24 -77 -17 -28 4 25 8 48 11 53 9 16 12 5 6 -25z m-533 -90 c0
-16 -4 -28 -10 -28 -5 0 -10 15 -10 33 0 17 -3 43 -5 57 -5 22 -3 21 9 -5 9
-16 15 -42 16 -57z m293 -55 c16 -30 16 -35 2 -60 -33 -58 -65 -96 -65 -78 0
9 11 26 24 36 32 25 39 61 21 105 -8 20 -15 44 -14 53 1 12 3 11 8 -4 3 -11
14 -35 24 -52z m-165 10 c0 -16 -3 -32 -6 -37 -8 -14 -20 25 -14 46 7 28 19
21 20 -9z m-149 -55 c0 -45 -3 -57 -9 -43 -16 36 -11 105 7 105 2 0 3 -28 2
-62z m585 -39 c-10 -12 -37 -30 -59 -41 -48 -24 -36 -9 26 31 54 36 57 37 33
10z m-1065 -156 c-25 -50 -24 -79 7 -133 21 -38 22 -41 5 -26 -22 20 -43 75
-43 112 0 19 36 84 47 84 1 0 -6 -17 -16 -37z m875 -21 c-21 -33 -53 -61 -131
-115 -58 -41 -65 -43 -57 -23 3 7 17 19 32 25 44 20 131 92 149 122 9 16 19
26 21 24 3 -2 -4 -17 -14 -33z m1246 -511 c-155 -56 -242 -95 -365 -163 -135
-75 -357 -212 -516 -319 -65 -43 -119 -77 -119 -74 0 8 275 200 400 280 219
138 378 216 575 281 137 45 154 42 25 -5z"/>
</g>
</svg>
