<svg xmlns="http://www.w3.org/2000/svg" viewBox="0 0 512 512">
  <defs>
    <mask id="gadfly-mask">
      <circle cx="256" cy="256" r="240" fill="white"/>
      <!-- Socrates/Gadfly: THE most recognizable. Bulging bald dome, heavy brow ridge,
           broad snub nose jutting OBVIOUSLY forward, thick full beard. Facing left.
           The dome+nose+beard silhouette must be unmistakable even at 32px -->
      <path fill="black" d="
        M 365 68
        C 345 48, 310 38, 278 42
        C 250 46, 225 60, 210 82
        C 198 100, 192 122, 192 148
        C 192 168, 196 186, 204 200
        C 208 208, 206 216, 200 224
        C 192 232, 180 238, 166 244
        C 152 250, 135 256, 118 264
        C 102 272, 90 280, 82 290
        C 76 298, 78 306, 86 312
        C 94 318, 106 316, 118 310
        C 130 304, 138 298, 146 296
        C 154 294, 158 298, 156 306
        C 152 316, 144 328, 134 340
        C 122 354, 112 366, 108 378
        C 104 390, 108 400, 118 406
        C 128 412, 140 408, 152 400
        C 164 390, 174 378, 182 366
        C 190 354, 196 342, 204 334
        C 214 326, 228 322, 244 322
        C 262 322, 280 328, 296 338
        C 312 348, 324 362, 334 380
        C 344 398, 350 416, 356 436
        C 360 452, 363 470, 365 490
        L 365 500
        L 432 500
        C 428 470, 422 442, 414 416
        C 406 390, 396 368, 382 350
        C 370 334, 360 322, 354 312
        C 348 302, 348 292, 352 280
        C 358 266, 364 252, 368 236
        C 372 220, 373 202, 370 184
        C 367 166, 365 152, 366 138
        C 367 122, 370 106, 372 90
        C 373 78, 370 70, 365 68
        Z"/>
    </mask>
  </defs>
  <circle cx="256" cy="256" r="240" fill="#C8A84B" mask="url(#gadfly-mask)"/>
</svg>
