<svg xmlns="http://www.w3.org/2000/svg" viewBox="0 0 512 512">
  <defs>
    <mask id="herald-mask">
      <circle cx="256" cy="256" r="240" fill="white"/>
      <!-- Herald/Lever: Strong SQUARE jaw (noticeably different from others), mouth open
           in proclamation, short cropped hair, thick muscular neck. Facing left.
           The open mouth gap + square jaw are the recognition anchors -->
      <path fill="black" d="
        M 350 78
        C 332 62, 300 55, 272 58
        C 248 61, 226 72, 214 92
        C 203 110, 198 132, 198 155
        C 198 174, 202 190, 210 202
        C 214 210, 212 218, 206 224
        C 198 230, 188 234, 178 238
        C 168 242, 158 248, 152 255
        C 146 262, 145 268, 148 273
        C 152 278, 160 278, 168 274
        C 175 270, 180 267, 186 267
        C 192 267, 194 272, 192 278
        C 189 285, 183 290, 176 294
        C 168 298, 160 304, 156 312
        C 152 320, 154 328, 160 332
        C 166 336, 175 334, 182 328
        C 188 322, 192 317, 196 314
        C 200 310, 206 310, 212 314
        C 220 320, 224 330, 222 340
        C 220 350, 214 358, 208 366
        C 202 374, 198 382, 200 390
        C 202 398, 210 404, 222 404
        C 232 404, 240 398, 246 390
        C 252 382, 256 372, 260 362
        C 264 352, 270 344, 280 340
        C 292 336, 306 336, 320 342
        C 334 348, 344 358, 354 372
        C 364 386, 372 404, 378 422
        C 384 440, 388 458, 390 476
        C 392 488, 393 495, 394 500
        L 460 500
        C 456 472, 450 445, 442 420
        C 434 396, 423 374, 410 356
        C 398 340, 386 328, 378 318
        C 370 308, 368 298, 370 286
        C 372 274, 378 262, 382 248
        C 386 234, 388 218, 386 200
        C 384 183, 380 170, 380 155
        C 380 140, 382 124, 380 108
        C 378 94, 362 80, 350 78
        Z"/>
    </mask>
  </defs>
  <circle cx="256" cy="256" r="240" fill="#C85B5B" mask="url(#herald-mask)"/>
</svg>
