<svg xmlns="http://www.w3.org/2000/svg" viewBox="0 0 512 512">
  <defs>
    <mask id="peripatetic-mask">
      <circle cx="256" cy="256" r="240" fill="white"/>
      <!-- Aristotle/Peripatetic: neat beard, forward-tilted head, high forehead, facing left -->
      <!-- Bold chunky profile filling ~65% of circle -->
      <path fill="black" d="
        M 350 72
        C 330 60, 298 55, 270 62
        C 245 68, 222 82, 208 105
        C 195 125, 190 150, 192 175
        C 194 195, 200 212, 208 225
        C 212 232, 210 240, 204 248
        C 196 256, 184 262, 170 266
        C 155 270, 140 275, 128 282
        C 118 288, 112 296, 115 305
        C 118 312, 126 316, 138 316
        C 150 316, 160 310, 168 302
        C 174 296, 180 294, 186 296
        C 192 298, 194 305, 192 314
        C 188 326, 180 338, 172 350
        C 164 362, 158 372, 158 382
        C 158 392, 164 400, 175 404
        C 186 408, 198 404, 208 396
        C 218 388, 226 378, 232 366
        C 238 354, 244 344, 252 338
        C 262 332, 276 330, 292 334
        C 308 338, 320 346, 330 358
        C 340 370, 348 386, 354 404
        C 360 422, 364 440, 366 460
        C 368 475, 370 490, 372 500
        L 440 500
        C 436 472, 430 445, 422 420
        C 414 396, 404 375, 390 358
        C 378 342, 366 330, 358 320
        C 350 310, 348 300, 350 288
        C 352 276, 358 264, 362 250
        C 366 235, 367 218, 364 200
        C 361 182, 358 168, 358 152
        C 358 135, 362 118, 362 102
        C 362 88, 358 76, 350 72
        Z"/>
    </mask>
  </defs>
  <circle cx="256" cy="256" r="240" fill="#5BC88A" mask="url(#peripatetic-mask)"/>
</svg>
