<svg xmlns="http://www.w3.org/2000/svg" viewBox="0 0 512 512">
  <defs>
    <mask id="traveller-mask">
      <circle cx="256" cy="256" r="240" fill="white"/>
      <!-- Herodotus/Traveller: wide petasos hat extending BEYOND the circle (dramatic brim),
           neat beard, observant expression. Facing left.
           The hat silhouette is the unmistakable recognition anchor -->
      <!-- Face and neck profile -->
      <path fill="black" d="
        M 350 155
        C 342 140, 328 130, 310 126
        C 292 122, 274 124, 258 132
        C 244 140, 234 152, 228 168
        C 224 182, 224 196, 228 208
        C 231 216, 228 224, 222 230
        C 214 236, 204 240, 194 244
        C 184 248, 174 254, 168 262
        C 162 268, 162 276, 166 282
        C 170 288, 178 288, 186 282
        C 192 277, 196 274, 200 274
        C 206 274, 208 280, 206 288
        C 202 298, 196 306, 188 314
        C 180 322, 174 330, 174 338
        C 174 346, 178 352, 186 354
        C 194 356, 202 352, 208 344
        C 214 336, 218 328, 222 320
        C 226 312, 232 306, 240 302
        C 250 298, 262 298, 274 302
        C 286 306, 296 314, 305 326
        C 314 338, 320 352, 326 368
        C 332 384, 336 402, 340 420
        C 344 438, 346 456, 348 474
        C 349 488, 350 495, 350 500
        L 418 500
        C 415 472, 410 445, 404 420
        C 398 396, 390 374, 380 356
        C 370 340, 360 328, 354 318
        C 348 308, 346 298, 348 286
        C 351 274, 356 262, 360 248
        C 364 234, 365 218, 363 202
        C 361 186, 358 174, 358 162
        C 358 152, 356 148, 350 155
        Z"/>
      <!-- Petasos hat - wide dramatic brim extending beyond circle -->
      <path fill="black" d="
        M 150 148
        C 130 144, 100 138, 70 136
        C 40 134, 10 134, -10 138
        C -22 141, -26 146, -20 150
        C -14 154, 0 156, 20 156
        C 50 156, 85 154, 120 152
        C 150 150, 180 148, 210 145
        C 240 142, 270 140, 300 138
        C 330 136, 355 134, 375 130
        C 390 127, 398 123, 396 118
        C 394 113, 382 110, 365 110
        C 345 110, 320 114, 295 118
        C 270 122, 245 128, 220 134
        C 195 140, 170 146, 150 148
        Z"/>
      <!-- Hat crown/dome -->
      <path fill="black" d="
        M 230 140
        C 235 125, 250 110, 270 104
        C 290 98, 312 100, 328 108
        C 342 115, 350 124, 352 132
        C 348 136, 338 132, 325 126
        C 310 120, 292 116, 274 118
        C 256 120, 242 128, 234 135
        C 230 138, 230 140, 230 140
        Z"/>
    </mask>
  </defs>
  <circle cx="256" cy="256" r="240" fill="#5BC88A" mask="url(#traveller-mask)"/>
</svg>
