<svg xmlns="http://www.w3.org/2000/svg" viewBox="0 0 512 512">
  <defs>
    <mask id="pythia-mask">
      <circle cx="256" cy="256" r="240" fill="white"/>
      <!-- Pythia/Oracle: head tilted BACK in trance, laurel wreath, exposed long neck, facing left -->
      <!-- The backward tilt is the key differentiator -->
      <path fill="black" d="
        M 355 125
        C 345 105, 325 90, 300 82
        C 278 75, 255 78, 238 88
        C 222 98, 212 114, 208 134
        C 205 152, 208 170, 215 185
        C 220 195, 218 205, 212 212
        C 204 220, 194 226, 182 230
        C 170 234, 158 238, 148 244
        C 138 250, 132 258, 135 266
        C 138 274, 146 278, 156 276
        C 166 274, 174 268, 180 262
        C 186 256, 190 254, 196 256
        C 202 258, 204 265, 200 274
        C 196 284, 188 294, 180 302
        C 172 310, 166 318, 165 326
        C 164 334, 168 340, 176 342
        C 184 344, 192 340, 198 334
        C 204 328, 208 320, 212 312
        C 216 304, 222 298, 230 296
        C 240 294, 250 296, 260 302
        C 272 310, 282 322, 290 336
        C 298 350, 304 366, 310 384
        C 316 402, 320 420, 324 438
        C 328 456, 330 474, 332 500
        L 400 500
        C 396 470, 390 442, 382 416
        C 374 392, 364 370, 352 352
        C 342 336, 334 324, 330 314
        C 326 304, 328 294, 334 284
        C 342 272, 350 260, 356 246
        C 362 232, 365 216, 365 200
        C 365 184, 362 170, 362 158
        C 362 145, 365 135, 365 125
        C 365 118, 360 128, 355 125
        Z"/>
      <!-- Laurel wreath - chunky leaves that read at small sizes -->
      <ellipse cx="235" cy="78" rx="18" ry="10" fill="black" transform="rotate(-20 235 78)"/>
      <ellipse cx="265" cy="72" rx="18" ry="10" fill="black" transform="rotate(-5 265 72)"/>
      <ellipse cx="295" cy="74" rx="18" ry="10" fill="black" transform="rotate(10 295 74)"/>
      <ellipse cx="322" cy="84" rx="18" ry="10" fill="black" transform="rotate(25 322 84)"/>
      <ellipse cx="344" cy="100" rx="18" ry="10" fill="black" transform="rotate(45 344 100)"/>
      <ellipse cx="210" cy="92" rx="18" ry="10" fill="black" transform="rotate(-40 210 92)"/>
    </mask>
  </defs>
  <circle cx="256" cy="256" r="240" fill="#89B4C8" mask="url(#pythia-mask)"/>
</svg>
