<svg xmlns="http://www.w3.org/2000/svg" viewBox="0 0 512 512">
  <defs>
    <mask id="m">
      <circle cx="256" cy="256" r="240" fill="white"/>
      <!-- Herodotus/Traveller: WIDE petasos hat brim extending far left (the dominant feature), face in shadow beneath, neat short beard, cloak/collar at shoulders -->
      <path d="
        M 325 100
        C 310 95, 290 96, 272 100
        C 252 104, 232 108, 210 110
        C 185 112, 158 110, 135 108
        C 118 106, 108 110, 115 118
        C 122 126, 140 125, 162 125
        C 185 125, 210 124, 228 128
        C 240 132, 245 140, 245 152
        C 245 162, 240 170, 232 178
        C 224 186, 218 194, 214 205
        C 210 216, 212 226, 218 234
        C 214 240, 208 248, 204 258
        C 198 272, 202 285, 210 294
        C 205 300, 198 310, 195 324
        C 190 340, 192 358, 198 375
        C 202 390, 200 408, 196 425
        L 194 440
        L 360 440
        C 355 415, 348 392, 340 372
        C 332 352, 326 335, 324 318
        C 322 302, 326 288, 332 276
        C 338 264, 344 250, 344 235
        C 344 218, 338 205, 328 195
        C 318 185, 314 175, 316 162
        C 318 148, 325 135, 332 122
        C 338 112, 336 102, 328 100
        Z" fill="black"/>
    </mask>
  </defs>
  <circle cx="256" cy="256" r="240" fill="#5BC88A" mask="url(#m)"/>
</svg>