<svg xmlns="http://www.w3.org/2000/svg" viewBox="0 0 512 512">
  <defs>
    <mask id="m">
      <circle cx="256" cy="256" r="240" fill="white"/>
      <!-- Herald/Lever: helmet ridge on top, strong brow, straight nose, OPEN MOUTH (gap in profile), square jaw, thick muscular neck -->
      <path d="
        M 308 82
        C 282 76, 256 85, 242 102
        C 230 118, 226 138, 230 155
        C 232 165, 228 172, 220 178
        C 212 184, 206 190, 202 200
        C 198 210, 200 218, 206 224
        C 200 228, 194 234, 192 242
        C 190 250, 194 256, 200 260
        C 196 262, 194 266, 196 270
        C 200 274, 205 276, 202 282
        C 198 290, 196 298, 200 308
        C 204 318, 212 325, 218 332
        C 224 340, 222 352, 218 365
        C 212 382, 208 400, 208 418
        L 208 440
        L 365 440
        C 360 415, 354 390, 348 370
        C 342 350, 338 335, 338 318
        C 338 302, 340 288, 345 276
        C 350 264, 355 252, 354 238
        C 352 222, 344 208, 332 198
        C 322 190, 318 180, 320 168
        C 322 154, 328 140, 332 126
        C 336 112, 332 96, 322 86
        C 318 82, 312 81, 308 82
        Z" fill="black"/>
    </mask>
  </defs>
  <circle cx="256" cy="256" r="240" fill="#C85B5B" mask="url(#m)"/>
</svg>