<svg xmlns="http://www.w3.org/2000/svg" viewBox="0 0 512 512">
  <defs>
    <mask id="m">
      <circle cx="256" cy="256" r="240" fill="white"/>
      <!-- Pythia/Oracle: head tilted back (chin up), laurel wreath as bumps along crown, long swan neck, draped shoulders -->
      <path d="
        M 275 78
        C 268 76, 261 79, 256 84
        C 250 80, 243 82, 238 88
        C 232 85, 225 89, 224 96
        C 220 100, 218 108, 222 118
        C 226 130, 232 140, 235 152
        C 237 162, 234 170, 228 176
        C 220 184, 212 192, 208 204
        C 204 216, 208 226, 215 232
        C 210 238, 204 246, 200 256
        C 196 268, 200 278, 208 284
        C 212 288, 214 296, 215 308
        C 216 325, 212 342, 205 360
        C 198 378, 192 396, 188 415
        L 185 440
        L 365 440
        C 358 412, 348 385, 338 365
        C 328 345, 322 328, 320 312
        C 318 298, 322 285, 330 275
        C 338 265, 345 252, 345 238
        C 345 222, 338 208, 328 198
        C 318 188, 312 178, 310 165
        C 308 150, 312 135, 318 122
        C 322 110, 320 98, 312 90
        C 304 82, 290 78, 280 77
        Z" fill="black"/>
    </mask>
  </defs>
  <circle cx="256" cy="256" r="240" fill="#89B4C8" mask="url(#m)"/>
</svg>