<svg xmlns="http://www.w3.org/2000/svg" viewBox="0 0 512 512">
  <defs>
    <mask id="m">
      <circle cx="256" cy="256" r="240" fill="white"/>
      <!-- Socrates/Gadfly: MASSIVE bald dome (biggest head), deep-set brow overhang, bulbous snub nose protruding far left, thick wild beard mass -->
      <path d="
        M 330 90
        C 298 68, 255 70, 235 88
        C 218 104, 210 128, 215 155
        C 218 168, 212 175, 202 178
        C 192 182, 182 180, 176 186
        C 168 194, 165 205, 172 215
        C 162 218, 152 225, 148 238
        C 144 252, 152 264, 165 268
        C 158 275, 148 288, 145 305
        C 140 325, 148 345, 162 358
        C 172 368, 175 382, 172 400
        C 170 415, 170 428, 172 440
        L 352 440
        C 348 418, 342 396, 335 378
        C 328 358, 324 340, 322 322
        C 320 305, 324 290, 330 278
        C 336 265, 342 250, 342 235
        C 342 218, 336 204, 326 195
        C 316 186, 312 175, 316 162
        C 320 148, 328 132, 335 118
        C 342 105, 342 95, 335 90
        Z" fill="black"/>
    </mask>
  </defs>
  <circle cx="256" cy="256" r="240" fill="#C8A84B" mask="url(#m)"/>
</svg>